<svg viewBox="0 0 400 248.185" width="400" height="248.185" xmlns="http://www.w3.org/2000/svg">
  <rect fill="#590d82" width="400" height="248.185" style="transform-origin: 0px 0px;" transform="matrix(1, 0, 0, 1, 0, -2.842170943040401e-14)"/>
  <g transform="matrix(0.970992028713, 0, 0, 0.970992028713, 9.999997907377, 10.000008397794)" style="transform-origin: -10px -10px;">
    <g id="SvgjsG2611" featurekey="dsJevG-0" transform="matrix(0.24754963522236337,0,0,0.24754963522236337,0,55)" fill="#ffffff">
      <g xmlns="http://www.w3.org/2000/svg">
        <path d="M294.836,383.272c-8.421,0-15.272,6.852-15.272,15.273V450.4c0,2.209,1.791,4,4,4h22.545c2.209,0,4-1.791,4-4v-51.854   C310.109,390.124,303.257,383.272,294.836,383.272z M302.109,446.4h-14.545v-47.854c0-4.011,3.262-7.273,7.272-7.273   s7.273,3.263,7.273,7.273V446.4z"/>
        <path d="M116.727,454.4h22.545c2.209,0,4-1.791,4-4v-51.854c0-8.422-6.851-15.273-15.272-15.273s-15.273,6.852-15.273,15.273V450.4   C112.727,452.609,114.518,454.4,116.727,454.4z M120.727,398.546c0-4.011,3.263-7.273,7.273-7.273s7.272,3.263,7.272,7.273V446.4   h-14.545V398.546z"/>
        <path d="M1.501,343.567C0.552,344.326,0,345.476,0,346.69V500c0,2.209,1.791,4,4,4h414.836c2.209,0,4-1.791,4-4V346.69   c0-1.215-0.552-2.364-1.501-3.123l-30.063-24.05V196.903c7.74-1.817,13.527-8.762,13.527-17.049s-5.787-15.232-13.527-17.049   v-28.042c0-2.209-1.791-4-4-4h-22.545c-2.209,0-4,1.791-4,4v5.018H345.45c-5.018-23.557-18.115-45.622-37.175-62.435   c-19.192-16.929-42.415-26.657-65.802-27.657V34.621c0-11.631-9.463-21.094-21.094-21.094h-5.96V4c0-2.209-1.791-4-4-4   s-4,1.791-4,4v9.527h-5.96c-11.631,0-21.094,9.462-21.094,21.094V49.69c-23.387,1.001-46.611,10.728-65.802,27.657   c-19.06,16.812-32.157,38.877-37.175,62.435H62.109v-5.018c0-2.209-1.791-4-4-4H35.563c-2.209,0-4,1.791-4,4v28.042   c-7.74,1.817-13.527,8.762-13.527,17.049s5.787,15.232,13.527,17.049v122.614L1.501,343.567z M108.218,197.382v109.236H62.109   V197.382H108.218z M199.117,314.618l-38.6,28.072H95.584l-35.091-28.072H199.117z M234.473,428.363h-10.037v-18.545   c0-7.179-5.84-13.019-13.018-13.019s-13.018,5.84-13.018,13.019v18.545h-10.037v-18.545c0-12.713,10.342-23.055,23.055-23.055   s23.055,10.342,23.055,23.055V428.363z M216.436,428.363H206.4v-18.545c0-2.768,2.251-5.019,5.018-5.019s5.018,2.251,5.018,5.019   V428.363z M187.246,436.363h48.343l4.848,14.546h-58.04L187.246,436.363z M179.731,458.909h63.374l4.848,14.545h-73.07   L179.731,458.909z M242.473,431.714v-21.896c0-17.124-13.931-31.055-31.055-31.055s-31.055,13.931-31.055,31.055v21.896   l-14.547,43.637l0.001-124.661h91.2l-0.001,124.659L242.473,431.714z M174.119,342.69l37.299-27.126l37.299,27.126H174.119z    M157.818,350.69L157.816,496H98.182V350.69H157.818z M172.215,481.454h78.403L255.467,496h-88.101L172.215,481.454z    M265.018,350.69h59.636V496h-59.638L265.018,350.69z M262.319,342.69l-38.6-28.072h138.623l-35.091,28.072H262.319z    M373.745,315.74l33.688,26.95h-67.375L373.745,315.74z M314.618,306.618V197.382h46.109v109.236H314.618z M306.618,306.618   h-14.545V197.382h14.545V306.618z M284.073,306.618h-14.546V197.382h14.546V306.618z M261.527,306.618H161.309V197.382h100.218   V306.618z M153.309,306.618h-14.546V197.382h14.546V306.618z M130.763,306.618h-14.545V197.382h14.545V306.618z M49.091,315.74   l33.687,26.95H15.404L49.091,315.74z M8,350.69h82.182V496H71.127v-95.2c0-12.15-9.885-22.036-22.036-22.036   s-22.037,9.886-22.037,22.036V496H8V350.69z M63.127,496H35.054v-95.2c0-7.739,6.297-14.036,14.037-14.036   s14.036,6.297,14.036,14.036V496z M387.782,496h-28.073v-95.2c0-7.739,6.296-14.036,14.036-14.036s14.037,6.297,14.037,14.036V496z    M395.782,496v-95.2c0-12.15-9.886-22.036-22.037-22.036s-22.036,9.886-22.036,22.036V496h-19.055V350.69h82.182V496H395.782z    M376.244,307.495c-0.709-0.567-1.591-0.877-2.499-0.877h-5.018V197.382h14.545v115.736L376.244,307.495z M383.272,138.764v23.563   h-14.545v-23.563H383.272z M360.727,162.327h-46.109v-14.545h46.109V162.327z M234.473,39.563v10.035h-46.109V39.563H234.473z    M185.761,57.599h51.314c24.165,19.183,38.284,43.774,42.021,73.165h-13.569c-2.209,0-4,1.791-4,4v5.018H161.309v-5.018   c0-2.209-1.791-4-4-4H143.74C147.476,101.373,161.596,76.782,185.761,57.599z M116.218,162.327v-23.563h14.545v23.563H116.218z    M138.763,138.764h14.546v23.563h-14.546V138.764z M161.309,147.782h100.218v14.545H161.309V147.782z M269.527,138.764h14.546   v23.563h-14.546V138.764z M292.073,138.764h14.545v23.563h-14.545V138.764z M314.618,139.782v-5.018c0-2.209-1.791-4-4-4h-23.457   c-3.38-28.437-15.744-52.701-36.827-72.32c15.686,2.208,30.833,8.672,44.064,18.194c-3.62,3.262-5.816,7.969-5.816,13.035   c0,9.665,7.863,17.527,17.527,17.527c5.142,0,9.906-2.257,13.17-5.968c8.462,11.466,14.756,24.575,17.994,38.549H314.618z    M314.146,94.792c-1.724,2.7-4.737,4.408-8.037,4.408c-5.253,0-9.527-4.274-9.527-9.527c0-3.261,1.672-6.249,4.323-7.982   C305.652,85.67,310.088,90.06,314.146,94.792z M201.458,21.527h19.921c6.166,0,11.336,4.289,12.719,10.036h-45.359   C190.121,25.816,195.292,21.527,201.458,21.527z M121.932,81.691c2.65,1.733,4.323,4.721,4.323,7.982   c0,5.253-4.274,9.527-9.527,9.527c-3.3,0-6.313-1.708-8.037-4.408C112.748,90.06,117.184,85.67,121.932,81.691z M103.557,101.233   c3.265,3.711,8.029,5.968,13.17,5.968c9.665,0,17.527-7.863,17.527-17.527c0-5.066-2.196-9.773-5.816-13.035   c13.231-9.523,28.378-15.986,44.064-18.194c-21.083,19.619-33.447,43.883-36.827,72.32h-23.457c-2.209,0-4,1.791-4,4v5.018H85.563   C88.801,125.807,95.095,112.699,103.557,101.233z M108.218,147.782v14.545H62.109v-14.545H108.218z M54.109,138.764v23.563H39.563   v-23.563H54.109z M26.036,179.854c0-5.253,4.274-9.527,9.527-9.527h351.709c5.253,0,9.527,4.274,9.527,9.527   s-4.274,9.527-9.527,9.527H35.563C30.31,189.382,26.036,185.108,26.036,179.854z M39.563,197.382h14.545v109.236h-5.018   c-0.908,0-1.79,0.31-2.499,0.877l-7.028,5.623V197.382z"/>
        <path d="M220.436,270.546H202.4c-2.209,0-4,1.791-4,4v18.036c0,2.209,1.791,4,4,4h18.036c2.209,0,4-1.791,4-4v-18.036   C224.436,272.337,222.645,270.546,220.436,270.546z M216.436,288.582H206.4v-10.036h10.036V288.582z"/>
        <path d="M346.691,270.546h-18.037c-2.209,0-4,1.791-4,4v18.036c0,2.209,1.791,4,4,4h18.037c2.209,0,4-1.791,4-4v-18.036   C350.691,272.337,348.9,270.546,346.691,270.546z M342.691,288.582h-10.037v-10.036h10.037V288.582z"/>
        <path d="M193.382,256h36.072c2.209,0,4-1.791,4-4v-40.582c0-2.209-1.791-4-4-4h-36.072c-2.209,0-4,1.791-4,4V252   C189.382,254.209,191.173,256,193.382,256z M197.382,215.418h28.072V248h-28.072V215.418z"/>
        <path d="M346.691,207.418h-18.037c-2.209,0-4,1.791-4,4v36.073c0,2.209,1.791,4,4,4h18.037c2.209,0,4-1.791,4-4v-36.073   C350.691,209.209,348.9,207.418,346.691,207.418z M342.691,243.491h-10.037v-28.073h10.037V243.491z"/>
        <path d="M76.145,296.582h18.037c2.209,0,4-1.791,4-4v-18.036c0-2.209-1.791-4-4-4H76.145c-2.209,0-4,1.791-4,4v18.036   C72.145,294.791,73.936,296.582,76.145,296.582z M80.145,278.546h10.037v10.036H80.145V278.546z"/>
        <path d="M76.145,251.491h18.037c2.209,0,4-1.791,4-4v-36.073c0-2.209-1.791-4-4-4H76.145c-2.209,0-4,1.791-4,4v36.073   C72.145,249.7,73.936,251.491,76.145,251.491z M80.145,215.418h10.037v28.073H80.145V215.418z"/>
        <path d="M211.418,107.2c9.665,0,17.527-7.863,17.527-17.527s-7.863-17.527-17.527-17.527s-17.527,7.863-17.527,17.527   S201.753,107.2,211.418,107.2z M211.418,80.146c5.253,0,9.527,4.274,9.527,9.527s-4.274,9.527-9.527,9.527   s-9.527-4.274-9.527-9.527S206.165,80.146,211.418,80.146z"/>
      </g>
    </g>
    <g id="SvgjsG2612" featurekey="textGroupContainer" transform="matrix(0.95,0,0,0.95,391,0)" fill="#ffffff">
      <rect xmlns="http://www.w3.org/2000/svg" y="0" height="1" width="1" opacity="0"/>
      <rect xmlns="http://www.w3.org/2000/svg" y="0" x="-280" width="3" height="248"/>
    </g>
    <g id="SvgjsG2613" featurekey="0oZDye-0" transform="matrix(4.661633113910499,0,0,4.661633113910499,127.48552962480586,29.459871914935768)" fill="#ffffff">
      <path d="M10.723 5.888999999999999 l2.9297 0 l0 14.111 l-2.9297 0 l0 -5.8008 l-5.9668 0 l0 5.8008 l-2.9297 0 l0 -14.111 l2.9297 0 l0 5.7617 l5.9668 0 l0 -5.7617 z M23.554715625 20.19531 c-4.1504 0 -7.2168 -2.832 -7.2168 -7.2559 c0 -4.4336 3.0664 -7.2461 7.2168 -7.2461 c4.1406 0 7.207 2.8125 7.207 7.2461 c0 4.4238 -3.0664 7.2559 -7.207 7.2559 z M23.554715625 17.5098 c2.4316 0 4.2969 -1.709 4.2969 -4.5703 c0 -2.8516 -1.8652 -4.5508 -4.2969 -4.5508 s-4.2969 1.6992 -4.2969 4.5508 c0 2.8613 1.8652 4.5703 4.2969 4.5703 z M39.326159375 5.888999999999999 c2.7637 0 4.4824 2.0508 4.4824 4.5605 c0 2.5684 -1.7188 4.4922 -4.4824 4.4922 l-2.9395 0 l0 5.0586 l-2.9297 0 l0 -14.111 l5.8691 0 z M38.837859375 12.4902 c1.4648 0 2.1484 -0.81055 2.1484 -2.0801 c0 -1.2207 -0.68359 -2.0703 -2.1484 -2.0703 l-2.4512 0 l0 4.1504 l2.4512 0 z M54.453359375 8.467 l-5.2344 0 l0 3.2031 l4.6387 0 l0 2.5488 l-4.6387 0 l0 3.1934 l5.2344 0 l0 2.5879 l-8.1836 0 l0 -14.111 l8.1836 0 l0 2.5781 z"/>
    </g>
    <g id="SvgjsG2614" featurekey="mo6dJk-0" transform="matrix(0.8977068608918138,0,0,0.8977068608918138,135.64908626685082,138.88907546159862)" fill="#ffffff">
      <path d="M10.01 5.888999999999999 l0 2.5781 l-3.3496 0 l0 11.533 l-2.9004 0 l0 -11.533 l-3.3691 0 l0 -2.5781 l9.6191 0 z M22.0853046875 5.888999999999999 l2.9297 0 l0 14.111 l-2.9297 0 l0 -5.8008 l-5.9668 0 l0 5.8008 l-2.9297 0 l0 -14.111 l2.9297 0 l0 5.7617 l5.9668 0 l0 -5.7617 z M37.812734375 8.467 l-5.2344 0 l0 3.2031 l4.6387 0 l0 2.5488 l-4.6387 0 l0 3.1934 l5.2344 0 l0 2.5879 l-8.1836 0 l0 -14.111 l8.1836 0 l0 2.5781 z M56.846046875 5.888999999999999 l2.9297 0 l0 14.111 l-2.9297 0 l0 -5.8008 l-5.9668 0 l0 5.8008 l-2.9297 0 l0 -14.111 l2.9297 0 l0 5.7617 l5.9668 0 l0 -5.7617 z M69.6142765625 20.19531 c-3.0957 0 -5.5176 -1.582 -5.5176 -5.1367 l0 -9.1699 l2.9297 0 l0 8.7695 c0 2.1484 1.1426 2.9492 2.5879 2.9492 c1.4551 0 2.6074 -0.81055 2.6074 -2.9492 l0 -8.7695 l2.9297 0 l0 9.1699 c0 3.5547 -2.4316 5.1367 -5.5371 5.1367 z M87.050784375 12.5488 c1.5918 0.43945 2.6563 1.4844 2.6563 3.4961 c0 2.3828 -1.4453 3.9551 -4.4238 3.9551 l-5.8105 0 l0 -14.111 l4.5703 0 c3.0469 0 4.6484 1.4648 4.6484 3.8672 c0 1.2402 -0.53711 2.2559 -1.6406 2.793 z M84.072284375 8.32 l-1.7773 0 l0 3.3203 l1.9043 0 c1.25 0 1.7969 -0.74219 1.7969 -1.6992 c0 -0.9375 -0.61523 -1.6211 -1.9238 -1.6211 z M84.736284375 17.4902 c1.582 0 2.1289 -0.84961 2.1289 -1.7676 c0 -0.9375 -0.53711 -1.8262 -2.1875 -1.8262 l-2.3828 0 l0 3.5938 l2.4414 0 z M108.877421875 20 l-1.0254 -2.9102 l-5.9277 0 l-1.0254 2.9102 l-2.998 0 l5.1953 -14.111 l3.584 0 l5.1953 14.111 l-2.998 0 z M102.783221875 14.6387 l4.209 0 l-2.0996 -5.9863 z M123.1398828125 5.888999999999999 l0 2.5781 l-3.3496 0 l0 11.533 l-2.9004 0 l0 -11.533 l-3.3691 0 l0 -2.5781 l9.6191 0 z M138.7256140625 20.19531 c-4.1504 0 -7.2168 -2.832 -7.2168 -7.2559 c0 -4.4336 3.0664 -7.2461 7.2168 -7.2461 c4.1406 0 7.207 2.8125 7.207 7.2461 c0 4.4238 -3.0664 7.2559 -7.207 7.2559 z M138.7256140625 17.5098 c2.4316 0 4.2969 -1.709 4.2969 -4.5703 c0 -2.8516 -1.8652 -4.5508 -4.2969 -4.5508 s-4.2969 1.6992 -4.2969 4.5508 c0 2.8613 1.8652 4.5703 4.2969 4.5703 z M148.046871875 20 l5.498 -7.3633 l-5.3418 -6.748 l3.5645 0 l3.5156 4.6289 l3.5156 -4.6289 l3.5645 0 l-5.3418 6.748 l5.498 7.3633 l-3.7305 0 l-3.5059 -4.9902 l-3.5059 4.9902 l-3.7305 0 z M173.91064843750002 8.467 l-5.3711 0 l0 3.2031 l4.6387 0 l0 2.5488 l-4.6387 0 l0 5.7813 l-2.9492 0 l0 -14.111 l8.3203 0 l0 2.5781 z M183.623075 20.19531 c-4.1504 0 -7.2168 -2.832 -7.2168 -7.2559 c0 -4.4336 3.0664 -7.2461 7.2168 -7.2461 c4.1406 0 7.207 2.8125 7.207 7.2461 c0 4.4238 -3.0664 7.2559 -7.207 7.2559 z M183.623075 17.5098 c2.4316 0 4.2969 -1.709 4.2969 -4.5703 c0 -2.8516 -1.8652 -4.5508 -4.2969 -4.5508 s-4.2969 1.6992 -4.2969 4.5508 c0 2.8613 1.8652 4.5703 4.2969 4.5703 z M201.9384328125 20 l-3.6719 -6.2109 l-0.84961 0 l0 6.2109 l-2.9297 0 l0 -14.111 l5.1172 0 c3.1934 0 4.541 1.8848 4.541 4.2188 c0 1.8945 -1.0742 3.125 -2.9883 3.5352 l4.248 6.3574 l-3.4668 0 z M197.4170328125 8.32 l0 3.3691 l1.7285 0 c1.5625 0 2.1973 -0.66406 2.1973 -1.6797 c0 -1.0059 -0.63477 -1.6895 -2.1973 -1.6895 l-1.7285 0 z M208.515653125 20 l0 -14.111 l5.1074 0 c4.502 0 6.7285 2.832 6.7285 7.0508 c0 4.2285 -2.2266 7.0605 -6.7285 7.0605 l-5.1074 0 z M211.445353125 17.4121 l2.0313 0 c2.5977 0 3.7891 -1.6211 3.7891 -4.4727 s-1.1914 -4.4727 -3.7891 -4.4727 l-2.0313 0 l0 8.9453 z M238.53467187500002 8.467 l-5.3711 0 l0 3.2031 l4.6387 0 l0 2.5488 l-4.6387 0 l0 5.7813 l-2.9492 0 l0 -14.111 l8.3203 0 l0 2.5781 z M248.2470984375 20.19531 c-4.1504 0 -7.2168 -2.832 -7.2168 -7.2559 c0 -4.4336 3.0664 -7.2461 7.2168 -7.2461 c4.1406 0 7.207 2.8125 7.207 7.2461 c0 4.4238 -3.0664 7.2559 -7.207 7.2559 z M248.2470984375 17.5098 c2.4316 0 4.2969 -1.709 4.2969 -4.5703 c0 -2.8516 -1.8652 -4.5508 -4.2969 -4.5508 s-4.2969 1.6992 -4.2969 4.5508 c0 2.8613 1.8652 4.5703 4.2969 4.5703 z M266.56245625 20 l-3.6719 -6.2109 l-0.84961 0 l0 6.2109 l-2.9297 0 l0 -14.111 l5.1172 0 c3.1934 0 4.541 1.8848 4.541 4.2188 c0 1.8945 -1.0742 3.125 -2.9883 3.5352 l4.248 6.3574 l-3.4668 0 z M262.04105625 8.32 l0 3.3691 l1.7285 0 c1.5625 0 2.1973 -0.66406 2.1973 -1.6797 c0 -1.0059 -0.63477 -1.6895 -2.1973 -1.6895 l-1.7285 0 z"/>
    </g>
    <g id="SvgjsG2615" featurekey="mo6dJk-1" transform="matrix(0.8977068608918138,0,0,0.8977068608918138,134.3606971876431,161.88913025327713)" fill="#ffffff">
      <path d="M7.6953 5.888999999999999 c2.7637 0 4.4824 2.0508 4.4824 4.5605 c0 2.5684 -1.7188 4.4922 -4.4824 4.4922 l-2.9395 0 l0 5.0586 l-2.9297 0 l0 -14.111 l5.8691 0 z M7.207 12.4902 c1.4648 0 2.1484 -0.81055 2.1484 -2.0801 c0 -1.2207 -0.68359 -2.0703 -2.1484 -2.0703 l-2.4512 0 l0 4.1504 l2.4512 0 z M20.2881140625 20.19531 c-3.0273 0 -5.3906 -1.4551 -5.8203 -4.1016 l3.0273 -0.69336 c0.19531 1.582 1.3574 2.4023 2.9102 2.4023 c1.1914 0 2.1387 -0.52734 2.1289 -1.7188 c-0.0097656 -1.3281 -1.5723 -1.748 -3.291 -2.2754 c-2.0703 -0.64453 -4.2871 -1.4063 -4.2871 -4.0039 c0 -2.627 2.1484 -4.1113 4.9805 -4.1113 c2.4805 0 4.9805 1.0059 5.5469 3.7109 l-2.832 0.70313 c-0.26367 -1.4063 -1.2109 -2.0215 -2.5391 -2.0215 c-1.1816 0 -2.1875 0.48828 -2.1875 1.6504 c0 1.084 1.3867 1.4453 2.9883 1.9238 c2.1289 0.64453 4.6484 1.4648 4.6484 4.2773 c0 2.998 -2.5098 4.2578 -5.2734 4.2578 z M39.81434375 5.888999999999999 l-4.6387 7.3535 l0 6.7578 l-2.9395 0 l0 -6.6895 l-4.668 -7.4219 l3.2422 0 l2.8809 4.8047 l2.8906 -4.8047 l3.2324 0 z M49.0088171875 20.19531 c-4.1504 0 -7.2168 -2.8223 -7.2168 -7.2559 s3.0664 -7.2461 7.2168 -7.2461 c3.1445 0 5.6641 1.6113 6.6699 4.2871 l-2.7344 0.99609 c-0.625 -1.6406 -2.1191 -2.5879 -3.9355 -2.5879 c-2.4316 0 -4.2969 1.6992 -4.2969 4.5508 s1.8652 4.5605 4.2969 4.5605 c1.8164 0 3.3105 -0.95703 3.9355 -2.5977 l2.7344 0.99609 c-1.0059 2.6758 -3.5254 4.2969 -6.6699 4.2969 z M67.939796875 5.888999999999999 l2.9297 0 l0 14.111 l-2.9297 0 l0 -5.8008 l-5.9668 0 l0 5.8008 l-2.9297 0 l0 -14.111 l2.9297 0 l0 5.7617 l5.9668 0 l0 -5.7617 z M83.6672265625 8.467 l-5.2344 0 l0 3.2031 l4.6387 0 l0 2.5488 l-4.6387 0 l0 3.1934 l5.2344 0 l0 2.5879 l-8.1836 0 l0 -14.111 l8.1836 0 l0 2.5781 z M87.6465125 20 l0 -14.111 l5.1074 0 c4.502 0 6.7285 2.832 6.7285 7.0508 c0 4.2285 -2.2266 7.0605 -6.7285 7.0605 l-5.1074 0 z M90.5762125 17.4121 l2.0313 0 c2.5977 0 3.7891 -1.6211 3.7891 -4.4727 s-1.1914 -4.4727 -3.7891 -4.4727 l-2.0313 0 l0 8.9453 z M111.3723046875 8.467 l-5.2344 0 l0 3.2031 l4.6387 0 l0 2.5488 l-4.6387 0 l0 3.1934 l5.2344 0 l0 2.5879 l-8.1836 0 l0 -14.111 l8.1836 0 l0 2.5781 z M118.281290625 17.4121 l4.4238 0 l0 2.5879 l-7.3535 0 l0 -14.111 l2.9297 0 l0 11.523 z M125.9033484375 20 l0 -14.111 l2.9297 0 l0 14.111 l-2.9297 0 z M139.687528125 20.19531 c-4.1504 0 -7.2168 -2.8223 -7.2168 -7.2559 s3.0664 -7.2461 7.2168 -7.2461 c3.1445 0 5.6641 1.6113 6.6699 4.2871 l-2.7344 0.99609 c-0.625 -1.6406 -2.1191 -2.5879 -3.9355 -2.5879 c-2.4316 0 -4.2969 1.6992 -4.2969 4.5508 s1.8652 4.5605 4.2969 4.5605 c1.8164 0 3.3105 -0.95703 3.9355 -2.5977 l2.7344 0.99609 c-1.0059 2.6758 -3.5254 4.2969 -6.6699 4.2969 z M164.062734375 8.467 l-5.2344 0 l0 3.2031 l4.6387 0 l0 2.5488 l-4.6387 0 l0 3.1934 l5.2344 0 l0 2.5879 l-8.1836 0 l0 -14.111 l8.1836 0 l0 2.5781 z M176.2258203125 5.888999999999999 l0 2.5781 l-3.3496 0 l0 11.533 l-2.9004 0 l0 -11.533 l-3.3691 0 l0 -2.5781 l9.6191 0 z M188.301125 5.888999999999999 l2.9297 0 l0 14.111 l-2.9297 0 l0 -5.8008 l-5.9668 0 l0 5.8008 l-2.9297 0 l0 -14.111 l2.9297 0 l0 5.7617 l5.9668 0 l0 -5.7617 z M195.8447546875 20 l0 -14.111 l2.9297 0 l0 14.111 l-2.9297 0 z M209.628934375 20.19531 c-4.1504 0 -7.2168 -2.8223 -7.2168 -7.2559 s3.0664 -7.2461 7.2168 -7.2461 c3.1445 0 5.6641 1.6113 6.6699 4.2871 l-2.7344 0.99609 c-0.625 -1.6406 -2.1191 -2.5879 -3.9355 -2.5879 c-2.4316 0 -4.2969 1.6992 -4.2969 4.5508 s1.8652 4.5605 4.2969 4.5605 c1.8164 0 3.3105 -0.95703 3.9355 -2.5977 l2.7344 0.99609 c-1.0059 2.6758 -3.5254 4.2969 -6.6699 4.2969 z M224.3506140625 20.19531 c-3.0273 0 -5.3906 -1.4551 -5.8203 -4.1016 l3.0273 -0.69336 c0.19531 1.582 1.3574 2.4023 2.9102 2.4023 c1.1914 0 2.1387 -0.52734 2.1289 -1.7188 c-0.0097656 -1.3281 -1.5723 -1.748 -3.291 -2.2754 c-2.0703 -0.64453 -4.2871 -1.4063 -4.2871 -4.0039 c0 -2.627 2.1484 -4.1113 4.9805 -4.1113 c2.4805 0 4.9805 1.0059 5.5469 3.7109 l-2.832 0.70313 c-0.26367 -1.4063 -1.2109 -2.0215 -2.5391 -2.0215 c-1.1816 0 -2.1875 0.48828 -2.1875 1.6504 c0 1.084 1.3867 1.4453 2.9883 1.9238 c2.1289 0.64453 4.6484 1.4648 4.6484 4.2773 c0 2.998 -2.5098 4.2578 -5.2734 4.2578 z"/>
    </g>
  </g>
</svg>