<?xml version="1.0" encoding="utf-8"?>
<svg viewBox="380.238 878.104 193.774 193.774" width="193.774" height="193.774" xmlns="http://www.w3.org/2000/svg">
  <ellipse style="fill: rgb(224, 224, 224);" cx="477.125" cy="974.991" rx="96.887" ry="96.887"/>
  <g transform="matrix(0.13403798639774323, 0, 0, 0.13403798639774323, 413.1725525434696, 844.3048221514346)">
    <path d="M 635.182 1223.719 C 619.226 1223.719 606.245 1236.701 606.245 1252.657 L 606.245 1350.91 C 606.245 1355.095 609.639 1358.489 613.824 1358.489 L 656.542 1358.489 C 660.727 1358.489 664.121 1355.095 664.121 1350.91 L 664.121 1252.659 C 664.121 1236.701 651.138 1223.719 635.182 1223.719 Z M 648.963 1343.331 L 621.403 1343.331 L 621.403 1252.659 C 621.403 1245.059 627.584 1238.879 635.182 1238.879 C 642.78 1238.879 648.963 1245.061 648.963 1252.659 L 648.963 1343.331 Z" style="fill: rgb(89, 13, 130);"/>
    <path d="M 297.709 1358.489 L 340.427 1358.489 C 344.612 1358.489 348.006 1355.095 348.006 1350.91 L 348.006 1252.659 C 348.006 1236.701 335.025 1223.72 319.069 1223.72 C 303.113 1223.72 290.13 1236.703 290.13 1252.659 L 290.13 1350.91 C 290.13 1355.095 293.524 1358.489 297.709 1358.489 Z M 305.288 1252.659 C 305.288 1245.059 311.471 1238.879 319.069 1238.879 C 326.667 1238.879 332.848 1245.061 332.848 1252.659 L 332.848 1343.331 L 305.288 1343.331 L 305.288 1252.659 L 305.288 1252.659 Z" style="fill: rgb(89, 13, 130);"/>
    <path d="M 79.384 1148.487 C 77.586 1149.926 76.54 1152.104 76.54 1154.405 L 76.54 1444.889 C 76.54 1449.075 79.934 1452.468 84.119 1452.468 L 870.132 1452.468 C 874.317 1452.468 877.711 1449.075 877.711 1444.889 L 877.711 1154.405 C 877.711 1152.103 876.665 1149.926 874.867 1148.487 L 817.905 1102.919 L 817.905 870.595 C 832.57 867.152 843.535 853.993 843.535 838.292 C 843.535 822.59 832.57 809.431 817.905 805.988 L 817.905 752.855 C 817.905 748.67 814.511 745.276 810.326 745.276 L 767.608 745.276 C 763.423 745.276 760.029 748.67 760.029 752.855 L 760.029 762.363 L 731.083 762.363 C 721.575 717.728 696.76 675.921 660.646 644.064 C 624.282 611.988 580.28 593.556 535.967 591.661 L 535.967 563.111 C 535.967 541.073 518.037 523.143 495.999 523.143 L 484.706 523.143 L 484.706 505.091 C 484.706 500.906 481.313 497.512 477.127 497.512 C 472.942 497.512 469.548 500.906 469.548 505.091 L 469.548 523.143 L 458.256 523.143 C 436.218 523.143 418.288 541.071 418.288 563.111 L 418.288 591.663 C 373.975 593.559 329.971 611.99 293.609 644.066 C 257.495 675.921 232.679 717.728 223.172 762.365 L 194.222 762.365 L 194.222 752.857 C 194.222 748.672 190.828 745.278 186.643 745.278 L 143.924 745.278 C 139.738 745.278 136.344 748.672 136.344 752.857 L 136.344 805.99 C 121.679 809.433 110.714 822.592 110.714 838.293 C 110.714 853.995 121.679 867.154 136.344 870.597 L 136.344 1102.92 L 79.384 1148.487 Z M 281.587 871.503 L 281.587 1078.478 L 194.222 1078.478 L 194.222 871.503 L 281.587 871.503 Z M 453.818 1093.636 L 380.681 1146.826 L 257.649 1146.826 L 191.16 1093.636 L 453.818 1093.636 Z M 520.809 1309.155 L 501.791 1309.155 L 501.791 1274.017 C 501.791 1260.414 490.726 1249.349 477.125 1249.349 C 463.525 1249.349 452.46 1260.414 452.46 1274.017 L 452.46 1309.155 L 433.442 1309.155 L 433.442 1274.017 C 433.442 1249.929 453.037 1230.333 477.125 1230.333 C 501.213 1230.333 520.809 1249.929 520.809 1274.017 L 520.809 1309.155 Z M 486.633 1309.155 L 467.618 1309.155 L 467.618 1274.017 C 467.618 1268.772 471.883 1264.507 477.125 1264.507 C 482.368 1264.507 486.633 1268.772 486.633 1274.017 L 486.633 1309.155 Z M 431.325 1324.313 L 522.924 1324.313 L 532.109 1351.874 L 422.138 1351.874 L 431.325 1324.313 Z M 417.086 1367.032 L 537.165 1367.032 L 546.35 1394.591 L 407.901 1394.591 L 417.086 1367.032 Z M 535.967 1315.504 L 535.967 1274.017 C 535.967 1241.571 509.571 1215.175 477.125 1215.175 C 444.68 1215.175 418.284 1241.571 418.284 1274.017 L 418.284 1315.504 L 390.721 1398.186 L 390.723 1161.984 L 563.524 1161.984 L 563.522 1398.182 L 535.967 1315.504 Z M 406.453 1146.826 L 477.125 1095.429 L 547.798 1146.826 L 406.453 1146.826 Z M 375.567 1161.984 L 375.563 1437.31 L 262.571 1437.31 L 262.571 1161.984 L 375.567 1161.984 Z M 402.845 1409.749 L 551.4 1409.749 L 560.587 1437.31 L 393.658 1437.31 L 402.845 1409.749 Z M 578.684 1161.984 L 691.68 1161.984 L 691.68 1437.31 L 578.68 1437.31 L 578.684 1161.984 Z M 573.57 1146.826 L 500.433 1093.636 L 763.089 1093.636 L 696.6 1146.826 L 573.57 1146.826 Z M 784.695 1095.762 L 848.526 1146.826 L 720.867 1146.826 L 784.695 1095.762 Z M 672.664 1078.478 L 672.664 871.503 L 760.029 871.503 L 760.029 1078.478 L 672.664 1078.478 Z M 657.506 1078.478 L 629.947 1078.478 L 629.947 871.503 L 657.506 871.503 L 657.506 1078.478 Z M 614.789 1078.478 L 587.228 1078.478 L 587.228 871.503 L 614.789 871.503 L 614.789 1078.478 Z M 572.07 1078.478 L 382.181 1078.478 L 382.181 871.503 L 572.07 871.503 L 572.07 1078.478 Z M 367.023 1078.478 L 339.462 1078.478 L 339.462 871.503 L 367.023 871.503 L 367.023 1078.478 Z M 324.304 1078.478 L 296.745 1078.478 L 296.745 871.503 L 324.304 871.503 L 324.304 1078.478 Z M 169.556 1095.762 L 233.384 1146.826 L 105.727 1146.826 L 169.556 1095.762 Z M 91.698 1161.984 L 247.413 1161.984 L 247.413 1437.31 L 211.309 1437.31 L 211.309 1256.93 C 211.309 1233.909 192.579 1215.177 169.556 1215.177 C 146.533 1215.177 127.801 1233.909 127.801 1256.93 L 127.801 1437.31 L 91.698 1437.31 L 91.698 1161.984 Z M 196.151 1437.31 L 142.959 1437.31 L 142.959 1256.93 C 142.959 1242.266 154.89 1230.335 169.556 1230.335 C 184.221 1230.335 196.151 1242.266 196.151 1256.93 L 196.151 1437.31 Z M 811.292 1437.31 L 758.1 1437.31 L 758.1 1256.93 C 758.1 1242.266 770.03 1230.335 784.695 1230.335 C 799.361 1230.335 811.292 1242.266 811.292 1256.93 L 811.292 1437.31 Z M 826.45 1437.31 L 826.45 1256.93 C 826.45 1233.909 807.718 1215.177 784.695 1215.177 C 761.672 1215.177 742.942 1233.909 742.942 1256.93 L 742.942 1437.31 L 706.838 1437.31 L 706.838 1161.984 L 862.553 1161.984 L 862.553 1437.31 L 826.45 1437.31 Z M 789.43 1080.14 C 788.087 1079.065 786.416 1078.478 784.695 1078.478 L 775.187 1078.478 L 775.187 871.503 L 802.747 871.503 L 802.747 1090.794 L 789.43 1080.14 Z M 802.747 760.436 L 802.747 805.082 L 775.187 805.082 L 775.187 760.436 L 802.747 760.436 Z M 760.029 805.082 L 672.664 805.082 L 672.664 777.523 L 760.029 777.523 L 760.029 805.082 Z M 520.809 572.475 L 520.809 591.488 L 433.444 591.488 L 433.444 572.475 L 520.809 572.475 Z M 428.512 606.648 L 525.739 606.648 C 571.526 642.995 598.278 689.589 605.359 745.278 L 579.649 745.278 C 575.463 745.278 572.07 748.672 572.07 752.857 L 572.07 762.365 L 382.181 762.365 L 382.181 752.857 C 382.181 748.672 378.788 745.278 374.602 745.278 L 348.892 745.278 C 355.971 689.589 382.725 642.995 428.512 606.648 Z M 296.745 805.082 L 296.745 760.436 L 324.304 760.436 L 324.304 805.082 L 296.745 805.082 Z M 339.462 760.436 L 367.023 760.436 L 367.023 805.082 L 339.462 805.082 L 339.462 760.436 Z M 382.181 777.523 L 572.07 777.523 L 572.07 805.082 L 382.181 805.082 L 382.181 777.523 Z M 587.228 760.436 L 614.789 760.436 L 614.789 805.082 L 587.228 805.082 L 587.228 760.436 Z M 629.947 760.436 L 657.506 760.436 L 657.506 805.082 L 629.947 805.082 L 629.947 760.436 Z M 672.664 762.365 L 672.664 752.857 C 672.664 748.672 669.271 745.278 665.085 745.278 L 620.64 745.278 C 614.236 691.397 590.809 645.423 550.862 608.249 C 580.583 612.433 609.283 624.681 634.352 642.723 C 627.493 648.903 623.332 657.822 623.332 667.421 C 623.332 685.734 638.231 700.63 656.542 700.63 C 666.284 700.63 675.311 696.354 681.496 689.322 C 697.529 711.047 709.455 735.886 715.59 762.363 L 672.664 762.363 L 672.664 762.365 Z M 671.77 677.12 C 668.503 682.236 662.794 685.472 656.542 685.472 C 646.588 685.472 638.49 677.374 638.49 667.421 C 638.49 661.242 641.658 655.58 646.681 652.297 C 655.676 659.836 664.081 668.154 671.77 677.12 Z M 458.254 538.301 L 495.999 538.301 C 507.682 538.301 517.478 546.427 520.098 557.317 L 434.154 557.317 C 436.773 546.427 446.571 538.301 458.254 538.301 Z M 307.572 652.297 C 312.593 655.58 315.763 661.242 315.763 667.421 C 315.763 677.374 307.664 685.472 297.711 685.472 C 291.459 685.472 285.75 682.236 282.483 677.12 C 290.17 668.154 298.575 659.836 307.572 652.297 Z M 272.755 689.324 C 278.942 696.356 287.968 700.632 297.709 700.632 C 316.022 700.632 330.919 685.734 330.919 667.423 C 330.919 657.824 326.758 648.905 319.899 642.725 C 344.968 624.681 373.668 612.435 403.389 608.251 C 363.442 645.425 340.015 691.399 333.611 745.28 L 289.166 745.28 C 284.98 745.28 281.587 748.673 281.587 752.859 L 281.587 762.367 L 238.661 762.367 C 244.796 735.886 256.722 711.049 272.755 689.324 Z M 281.587 777.523 L 281.587 805.082 L 194.222 805.082 L 194.222 777.523 L 281.587 777.523 Z M 179.064 760.436 L 179.064 805.082 L 151.503 805.082 L 151.503 760.436 L 179.064 760.436 Z M 125.872 838.292 C 125.872 828.338 133.97 820.24 143.924 820.24 L 810.326 820.24 C 820.279 820.24 828.377 828.338 828.377 838.292 C 828.377 848.245 820.279 856.343 810.326 856.343 L 143.924 856.343 C 133.97 856.345 125.872 848.247 125.872 838.292 Z M 151.503 871.503 L 179.062 871.503 L 179.062 1078.478 L 169.554 1078.478 C 167.833 1078.478 166.162 1079.065 164.819 1080.14 L 151.503 1090.794 L 151.503 871.503 Z" style="fill: rgb(89, 13, 130);"/>
    <path d="M 494.212 1010.131 L 460.039 1010.131 C 455.853 1010.131 452.46 1013.524 452.46 1017.71 L 452.46 1051.883 C 452.46 1056.069 455.853 1059.462 460.039 1059.462 L 494.212 1059.462 C 498.398 1059.462 501.791 1056.069 501.791 1051.883 L 501.791 1017.71 C 501.791 1013.524 498.398 1010.131 494.212 1010.131 Z M 486.633 1044.304 L 467.618 1044.304 L 467.618 1025.289 L 486.633 1025.289 L 486.633 1044.304 Z" style="fill: rgb(89, 13, 130);"/>
    <path d="M 733.435 1010.131 L 699.259 1010.131 C 695.073 1010.131 691.68 1013.524 691.68 1017.71 L 691.68 1051.883 C 691.68 1056.069 695.073 1059.462 699.259 1059.462 L 733.435 1059.462 C 737.62 1059.462 741.014 1056.069 741.014 1051.883 L 741.014 1017.71 C 741.014 1013.524 737.62 1010.131 733.435 1010.131 Z M 725.855 1044.304 L 706.838 1044.304 L 706.838 1025.289 L 725.855 1025.289 L 725.855 1044.304 Z" style="fill: rgb(89, 13, 130);"/>
    <path d="M 442.952 982.569 L 511.299 982.569 C 515.485 982.569 518.878 979.176 518.878 974.99 L 518.878 898.098 C 518.878 893.912 515.485 890.519 511.299 890.519 L 442.952 890.519 C 438.766 890.519 435.373 893.912 435.373 898.098 L 435.373 974.99 C 435.373 979.176 438.766 982.569 442.952 982.569 Z M 450.531 905.677 L 503.72 905.677 L 503.72 967.411 L 450.531 967.411 L 450.531 905.677 Z" style="fill: rgb(89, 13, 130);"/>
    <path d="M 733.435 890.519 L 699.259 890.519 C 695.073 890.519 691.68 893.912 691.68 898.098 L 691.68 966.447 C 691.68 970.633 695.073 974.026 699.259 974.026 L 733.435 974.026 C 737.62 974.026 741.014 970.633 741.014 966.447 L 741.014 898.098 C 741.014 893.912 737.62 890.519 733.435 890.519 Z M 725.855 958.868 L 706.838 958.868 L 706.838 905.677 L 725.855 905.677 L 725.855 958.868 Z" style="fill: rgb(89, 13, 130);"/>
    <path d="M 220.816 1059.462 L 254.992 1059.462 C 259.178 1059.462 262.571 1056.069 262.571 1051.883 L 262.571 1017.71 C 262.571 1013.524 259.178 1010.131 254.992 1010.131 L 220.816 1010.131 C 216.631 1010.131 213.237 1013.524 213.237 1017.71 L 213.237 1051.883 C 213.237 1056.069 216.631 1059.462 220.816 1059.462 Z M 228.395 1025.289 L 247.413 1025.289 L 247.413 1044.304 L 228.395 1044.304 L 228.395 1025.289 Z" style="fill: rgb(89, 13, 130);"/>
    <path d="M 220.816 974.026 L 254.992 974.026 C 259.178 974.026 262.571 970.633 262.571 966.447 L 262.571 898.098 C 262.571 893.912 259.178 890.519 254.992 890.519 L 220.816 890.519 C 216.631 890.519 213.237 893.912 213.237 898.098 L 213.237 966.447 C 213.237 970.633 216.631 974.026 220.816 974.026 Z M 228.395 905.677 L 247.413 905.677 L 247.413 958.868 L 228.395 958.868 L 228.395 905.677 Z" style="fill: rgb(89, 13, 130);"/>
    <path d="M 477.125 700.63 C 495.438 700.63 510.335 685.732 510.335 667.421 C 510.335 649.11 495.436 634.211 477.125 634.211 C 458.815 634.211 443.916 649.11 443.916 667.421 C 443.916 685.732 458.813 700.63 477.125 700.63 Z M 477.125 649.369 C 487.079 649.369 495.177 657.468 495.177 667.421 C 495.177 677.374 487.079 685.472 477.125 685.472 C 467.172 685.472 459.074 677.374 459.074 667.421 C 459.074 657.468 467.172 649.369 477.125 649.369 Z" style="fill: rgb(89, 13, 130);"/>
  </g>
</svg>