<?xml version="1.0" standalone="no"?>
<!DOCTYPE svg PUBLIC "-//W3C//DTD SVG 20010904//EN"
 "http://www.w3.org/TR/2001/REC-SVG-20010904/DTD/svg10.dtd">
<svg version="1.0" xmlns="http://www.w3.org/2000/svg"
 width="700.000000pt" height="700.000000pt" viewBox="0 0 700.000000 700.000000"
 preserveAspectRatio="xMidYMid meet">
<metadata>
Created by potrace 1.14, written by Peter Selinger 2001-2017
</metadata>
<g transform="translate(0.000000,700.000000) scale(0.100000,-0.100000)"
fill="#000000" stroke="none">
<path d="M3466 5794 c-3 -9 -6 -35 -6 -59 l0 -43 -60 -4 c-46 -3 -70 -11 -102
-34 -62 -44 -82 -91 -86 -200 l-4 -92 -80 -12 c-218 -32 -421 -141 -589 -317
-120 -126 -206 -273 -250 -425 l-23 -78 -68 0 -68 0 0 35 c0 47 -19 55 -140
55 -146 0 -140 7 -140 -159 l0 -139 -29 -12 c-38 -15 -66 -46 -86 -94 -30 -71
5 -160 76 -197 l39 -19 0 -558 0 -558 -142 -114 -143 -115 -3 -728 -2 -727 26
-10 c35 -14 3793 -14 3828 0 l26 10 -2 727 -3 728 -142 115 -143 114 0 558 0
558 39 19 c71 37 106 126 76 197 -20 48 -48 79 -86 94 l-29 12 0 139 c0 166 6
159 -140 159 -121 0 -140 -8 -140 -55 l0 -35 -69 0 -69 0 -11 47 c-43 170
-156 357 -295 491 -166 159 -349 252 -554 282 l-80 12 -4 92 c-4 109 -24 156
-86 200 -32 23 -56 31 -102 34 l-60 4 0 43 c0 61 -8 75 -40 75 -16 0 -30 -7
-34 -16z m177 -195 c23 -12 56 -48 57 -61 0 -5 -90 -8 -200 -8 -110 0 -200 3
-200 8 1 12 34 49 55 60 27 15 260 15 288 1z m67 -194 l0 -45 -210 0 -210 0 0
45 0 45 210 0 210 0 0 -45z m100 -191 c75 -71 149 -166 198 -254 35 -63 86
-209 100 -287 l9 -53 -59 0 c-78 0 -98 -11 -98 -55 l0 -35 -460 0 -460 0 0 35
c0 44 -20 55 -98 55 l-59 0 9 53 c14 78 65 224 100 287 51 90 124 184 198 254
l70 66 240 0 240 0 70 -66z m-732 -1 c-133 -141 -253 -388 -270 -558 l-3 -30
-118 -5 c-127 -5 -137 -10 -137 -62 l0 -28 -100 0 -100 0 6 28 c23 96 131 312
156 312 6 0 20 -8 30 -17 12 -10 41 -18 78 -21 48 -4 65 0 94 17 74 46 99 144
55 225 -19 36 -19 39 -2 52 37 28 170 92 233 112 136 43 142 42 78 -25z m898
31 c80 -23 211 -83 258 -119 18 -13 18 -15 -3 -49 -30 -48 -30 -123 -1 -170
34 -57 80 -79 150 -74 37 3 66 11 78 21 10 9 24 17 30 17 25 0 133 -216 156
-312 l6 -28 -100 0 -100 0 0 28 c0 52 -10 57 -137 62 l-117 5 -13 69 c-34 189
-126 372 -259 515 -31 34 -52 61 -46 61 5 0 49 -11 98 -26z m-1266 -239 c4
-39 0 -55 -20 -75 -25 -25 -86 -27 -112 -3 -18 16 -17 19 39 75 54 55 58 57
74 41 10 -10 18 -27 19 -38z m1713 -77 c-23 -25 -87 -24 -113 2 -29 29 -30 82
-2 113 15 17 19 15 74 -40 54 -53 57 -58 41 -75z m-2373 -493 l0 -105 -60 0
-60 0 0 105 0 105 60 0 60 0 0 -105z m710 0 l0 -105 -65 0 -65 0 0 105 0 105
65 0 65 0 0 -105z m200 0 l0 -105 -60 0 -60 0 0 105 0 105 60 0 60 0 0 -105z
m1200 0 l0 -105 -60 0 -60 0 0 105 0 105 60 0 60 0 0 -105z m210 0 l0 -105
-65 0 -65 0 0 105 0 105 65 0 65 0 0 -105z m700 0 l0 -105 -60 0 -60 0 0 105
0 105 60 0 60 0 0 -105z m-2520 -45 l0 -60 -210 0 -210 0 0 60 0 60 210 0 210
0 0 -60z m1410 0 l0 -60 -460 0 -460 0 0 60 0 60 460 0 460 0 0 -60z m910 0
l0 -60 -210 0 -210 0 0 60 0 60 210 0 210 0 0 -60z m280 -153 c53 -27 62 -96
18 -137 -22 -20 -28 -20 -1668 -20 -1640 0 -1646 0 -1668 20 -44 41 -35 110
18 137 37 19 3263 19 3300 0z m-3100 -737 l0 -500 -27 0 c-14 0 -41 -11 -60
-26 l-33 -25 0 525 0 526 60 0 60 0 0 -500z m500 0 l0 -500 -210 0 -210 0 0
500 0 500 210 0 210 0 0 -500z m210 0 l0 -500 -65 0 -65 0 0 500 0 500 65 0
65 0 0 -500z m200 0 l0 -500 -60 0 -60 0 0 500 0 500 60 0 60 0 0 -500z m1000
0 l0 -500 -460 0 -460 0 0 500 0 500 460 0 460 0 0 -500z m200 0 l0 -500 -60
0 -60 0 0 500 0 500 60 0 60 0 0 -500z m210 0 l0 -500 -65 0 -65 0 0 500 0
500 65 0 65 0 0 -500z m500 0 l0 -500 -210 0 -210 0 0 500 0 500 210 0 210 0
0 -500z m200 -26 l0 -525 -33 25 c-19 15 -46 26 -60 26 l-27 0 0 500 0 500 60
0 60 0 0 -526z m-1721 -572 c-13 -10 -90 -67 -171 -125 l-146 -107 -296 0
-297 0 -155 125 -156 125 622 0 c606 0 622 0 599 -18z m1367 -107 l-155 -125
-297 0 -296 0 -146 107 c-81 58 -158 115 -171 125 -23 18 -7 18 599 18 l622 0
-156 -125z m-2554 -5 l151 -120 -303 0 -302 0 148 120 c82 65 151 119 153 120
2 0 71 -54 153 -120z m1510 -2 l156 -113 -164 -3 c-90 -1 -238 -1 -328 0
l-164 3 161 118 c89 64 167 115 173 113 6 -2 81 -55 166 -118z m1470 2 l151
-120 -303 0 -302 0 148 120 c82 65 151 119 153 120 2 0 71 -54 153 -120z
m-2762 -865 l0 -665 -80 0 -79 0 -3 463 -3 462 -25 45 c-14 24 -45 58 -68 75
-39 26 -52 30 -112 30 -60 0 -74 -4 -111 -30 -87 -61 -83 -38 -89 -570 l-5
-470 -82 -3 -83 -3 0 666 0 665 370 0 370 0 0 -665z m628 3 l-3 -663 -270 0
-270 0 -3 663 -2 662 275 0 275 0 -2 -662z m912 105 c0 -306 -2 -554 -5 -551
-3 3 -31 79 -62 169 -56 164 -56 164 -63 319 -6 140 -9 160 -33 206 -88 173
-304 216 -445 89 -80 -72 -94 -113 -102 -295 -7 -155 -7 -155 -63 -319 -31
-90 -59 -166 -62 -169 -3 -3 -5 245 -5 551 l0 557 420 0 420 0 0 -557z m618
-105 l-3 -663 -270 0 -270 0 -3 663 -2 662 275 0 275 0 -2 -662z m822 -3 l0
-666 -82 3 -83 3 -5 471 -5 470 -27 41 c-41 63 -90 88 -170 88 -58 0 -72 -4
-110 -30 -23 -17 -54 -51 -68 -75 l-25 -45 -3 -462 -3 -463 -79 0 -80 0 0 665
0 665 370 0 370 0 0 -665z m-3279 312 c19 -13 39 -38 46 -57 8 -25 12 -162 12
-477 l1 -443 -125 0 -125 0 0 455 c0 504 0 503 63 530 47 21 90 18 128 -8z
m1504 4 c51 -23 101 -79 114 -128 6 -21 11 -80 11 -130 l0 -93 -45 0 -45 0 0
95 c0 139 -30 185 -120 185 -90 0 -120 -46 -120 -185 l0 -95 -45 0 -45 0 0 93
c0 50 5 109 11 130 22 81 111 147 199 147 25 0 63 -9 85 -19z m1461 3 c65 -31
64 -25 64 -529 l0 -455 -125 0 -125 0 1 443 c0 315 4 452 12 477 14 41 68 80
109 80 17 0 45 -7 64 -16z m-1508 -256 l3 -98 -41 0 -40 0 0 93 c0 52 3 97 7
101 4 4 21 6 38 4 l30 -3 3 -97z m198 -230 c9 -29 19 -59 22 -65 3 -10 -52
-13 -258 -13 -206 0 -261 3 -258 13 3 6 13 36 22 65 l18 52 218 0 218 0 18
-52z m70 -210 c9 -29 19 -59 22 -65 3 -10 -66 -13 -328 -13 -262 0 -331 3
-328 13 3 6 13 36 22 65 l18 52 288 0 288 0 18 -52z m70 -210 c9 -29 19 -59
22 -65 3 -10 -80 -13 -398 -13 -318 0 -401 3 -398 13 3 6 13 36 22 65 l18 52
358 0 358 0 18 -52z"/>
<path d="M3420 5129 c-58 -34 -75 -65 -75 -139 0 -69 13 -97 64 -135 34 -26
119 -32 163 -11 112 54 117 223 8 285 -48 27 -114 27 -160 0z m137 -81 c51
-48 15 -138 -56 -138 -47 0 -81 32 -81 79 0 72 84 109 137 59z"/>
<path d="M2232 3898 c-17 -17 -17 -369 0 -386 18 -18 202 -16 217 2 8 9 11 72
9 202 l-3 189 -105 3 c-73 2 -109 -1 -118 -10z m148 -193 l0 -125 -40 0 -40 0
0 125 0 125 40 0 40 0 0 -125z"/>
<path d="M2232 3318 c-18 -18 -17 -202 2 -217 9 -8 50 -11 117 -9 l104 3 0
115 0 115 -105 3 c-73 2 -109 -1 -118 -10z m148 -108 l0 -40 -40 0 -40 0 0 40
0 40 40 0 40 0 0 -40z"/>
<path d="M3299 3883 c-6 -17 -9 -102 -7 -216 2 -154 6 -189 18 -197 20 -13
360 -13 380 0 12 8 16 44 18 204 2 128 -1 202 -8 216 -10 19 -20 20 -201 20
l-189 0 -11 -27z m331 -198 l0 -145 -130 0 -130 0 0 145 0 145 130 0 130 0 0
-145z"/>
<path d="M3386 3314 c-11 -29 -7 -199 6 -212 16 -16 200 -16 216 0 16 16 16
200 0 216 -8 8 -48 12 -114 12 -84 0 -103 -3 -108 -16z m154 -104 l0 -40 -40
0 -40 0 0 40 0 40 40 0 40 0 0 -40z"/>
<path d="M4547 3903 c-13 -12 -8 -378 5 -391 16 -16 200 -16 216 0 17 17 17
369 0 386 -13 13 -209 18 -221 5z m153 -198 l0 -125 -40 0 -40 0 0 125 0 125
40 0 40 0 0 -125z"/>
<path d="M4544 3317 c-2 -7 -3 -60 -2 -118 l3 -104 104 -3 c67 -2 108 1 117 9
18 15 20 199 2 217 -18 18 -217 17 -224 -1z m156 -107 l0 -40 -40 0 -40 0 0
40 0 40 40 0 40 0 0 -40z"/>
<path d="M2672 2283 c-18 -9 -43 -30 -55 -47 -21 -30 -22 -41 -25 -293 -2
-175 1 -269 8 -283 10 -18 21 -20 135 -20 113 0 125 2 135 19 6 12 10 115 10
268 0 222 -2 252 -19 290 -33 71 -118 101 -189 66z m105 -85 c23 -21 23 -24
23 -250 l0 -228 -65 0 -65 0 0 230 c0 217 1 231 20 250 26 26 58 25 87 -2z"/>
<path d="M4197 2279 c-70 -37 -77 -66 -77 -352 0 -153 4 -256 10 -268 10 -17
22 -19 135 -19 113 0 125 2 135 19 6 12 10 117 10 273 0 243 -1 254 -23 292
-41 71 -117 93 -190 55z m113 -79 c19 -19 20 -33 20 -250 l0 -230 -65 0 -65 0
0 227 c0 219 1 227 22 250 26 28 61 30 88 3z"/>
</g>
</svg>
